<svg height="512" viewBox="0 0 64 64" width="512" xmlns="http://www.w3.org/2000/svg"><g id="Fill_Outline" data-name="Fill Outline"><circle cx="31" cy="30" fill="#bbf58b" r="27"/><circle cx="31" cy="30" fill="#80e1b8" r="24"/><path d="m47 23.911a10.1 10.1 0 0 0 -9.48-9.9 9.984 9.984 0 0 0 -9.415 5.43 16.2 16.2 0 0 1 -5.018 5.494 9.982 9.982 0 0 0 -4.087 8.154 10.1 10.1 0 0 0 9.479 9.9 9.987 9.987 0 0 0 9.417-5.43 16.19 16.19 0 0 1 5.016-5.494 9.98 9.98 0 0 0 4.088-8.154z" fill="#3aba80"/><path d="m24.251 9.005a6.17 6.17 0 0 0 -5.431 3.17 5.473 5.473 0 0 0 -.792 2.283 2.721 2.721 0 0 1 -1.377 2.142 5 5 0 1 0 7.059 6.087 3.044 3.044 0 0 1 2-1.93 6 6 0 0 0 -1.459-11.752z" fill="#ffc569"/><path d="m35 25v4a12 12 0 1 1 -10.382 18h-4.444a16 16 0 1 0 14.826-22z" fill="#2070a1"/><path d="m31.646 16.354h10v18h-10z" fill="#92e5eb" transform="matrix(.707 .707 -.707 .707 28.661 -18.487)"/><path d="m25.868 31.132h6v4h-6z" fill="#34b2e4" transform="matrix(.707 .707 -.707 .707 31.883 -10.709)"/><path d="m24.04 33.96h4v4h-4z" fill="#92e5eb" transform="matrix(.707 .707 -.707 .707 33.055 -7.88)"/><path d="m42.132 13.868h6v6h-6z" fill="#68cbf2" transform="matrix(.707 .707 -.707 .707 25.146 -26.972)"/><path d="m15 43h16v4h-16z" fill="#92e5eb"/><path d="m30 57h11a4 4 0 0 1 4 4 0 0 0 0 1 0 0h-19a0 0 0 0 1 0 0 4 4 0 0 1 4-4z" fill="#34b2e4"/><path d="m39.475 25.6a8 8 0 0 1 -10.7.556l-2.03 2.03 7.071 7.071 12.73-12.732-2-2z" fill="#68cbf2"/><path d="m44.17 27.9a2.6 2.6 0 0 0 .054 3.71 15.973 15.973 0 0 1 1.042 21.655 15.981 15.981 0 0 0 -1.096-25.365z" fill="#34b2e4"/><path d="m47.96 16.282a4 4 0 0 1 -5.657 0l-.414-.414-1 1 4.243 4.243 4.242-4.243-1-1z" fill="#2070a1"/><path d="m28.161 29.6-1 1 1.121 1.122a2.99 2.99 0 0 1 .264 3.92l1.029 1.029 2.825-2.832z" fill="#2070a1"/><path d="m26.04 33.132-1 1 .414.414a2 2 0 0 1 0 2.828l-.414.415 1 1 2.828-2.829z" fill="#68cbf2"/><path d="m17 43h-2v4h16v-2h-12a2 2 0 0 1 -2-2z" fill="#68cbf2"/><path d="m31 59a1.993 1.993 0 0 1 -1.986-1.863 3.991 3.991 0 0 0 -3.014 3.863h19a3.955 3.955 0 0 0 -.555-2z" fill="#2070a1"/><circle cx="24" cy="15" fill="#68cbf2" r="2"/><path d="m12.6 30.734 1.057-.176a3.5 3.5 0 0 1 4.012 2.769 3.5 3.5 0 0 1 -.779 2.973l-1.879 2.193a3.505 3.505 0 0 1 -5.577-.337l-.2-.306a3.5 3.5 0 0 1 -.093-3.75l1.026-1.71a3.505 3.505 0 0 1 2.433-1.656z" fill="#ffc569"/><path d="m26.713 15.752a3.044 3.044 0 0 0 -2 1.93 5 5 0 0 1 -9.421-.008 4.994 4.994 0 1 0 8.421 5.008 3.044 3.044 0 0 1 2-1.93 5.973 5.973 0 0 0 4.107-7.186 6.007 6.007 0 0 1 -3.107 2.186z" fill="#f06e7a"/><path d="m16.011 35.488a3.505 3.505 0 0 1 -5.577-.337l-.2-.306a3.5 3.5 0 0 1 -.565-1.62l-.524.873a3.5 3.5 0 0 0 .089 3.747l.2.306a3.505 3.505 0 0 0 5.577.337l1.879-2.188a3.5 3.5 0 0 0 .793-2.759z" fill="#f06e7a"/><g fill="#2f2f31"><path d="m31 2a28 28 0 0 0 -10.717 53.871 1 1 0 1 0 .766-1.848 26 26 0 1 1 32.989-11.974 1 1 0 0 0 1.772.929 28 28 0 0 0 -24.81-40.978z"/><path d="m43.932 26.553 3.321-3.321a1 1 0 0 0 0-1.414l-.707-.707 2.828-2.829.708.708a1 1 0 1 0 1.418-1.414l-7.075-7.076a1 1 0 0 0 -1.414 1.414l.707.707-2.829 2.829-.707-.707a1.029 1.029 0 0 0 -1.414 0l-4.1 4.1a1 1 0 0 0 1.414 1.414l3.389-3.389.707.707 2.122 2.125 2.829 2.828-6.58 6.58-4.734 4.733-5.657-5.657 5.1-5.1a1 1 0 0 0 -1.414-1.414l-5.8 5.8a1 1 0 0 0 0 1.414l.707.707-2.121 2.122a1 1 0 0 0 0 1.414l-2.13 2.126a1 1 0 0 0 0 1.414l2.833 2.833a1 1 0 0 0 1.414 0l2.121-2.122a1 1 0 0 0 1.414 0l2.118-2.125.707.707a1 1 0 0 0 1.414 0l4.979-4.978a10.985 10.985 0 1 1 -12.947 17.018h4.447a1 1 0 0 0 0-2h-15v-2h15a1 1 0 0 0 0-2h-16a1 1 0 0 0 -1 1v4a1 1 0 0 0 1 1h4.528a16.929 16.929 0 0 0 8.4 8.462 5 5 0 0 0 -2.928 4.538 1 1 0 0 0 1 1h19a1 1 0 0 0 1-1 4.99 4.99 0 0 0 -3.511-4.748 17.016 17.016 0 0 0 6.564-5.689 1 1 0 0 0 -1.653-1.126 14.984 14.984 0 0 1 -25.651-1.437h2.315a12.987 12.987 0 1 0 16.936-18.511l1.475-1.475a14.952 14.952 0 0 1 6.425 18.611 1 1 0 1 0 1.854.75 16.956 16.956 0 0 0 -6.821-20.822zm1.2-12.513 2.828 2.828-2.828 2.832-1.415-1.415-1.417-1.417zm-19.092 23.335-1.415-1.415 1.415-1.414 1.414 1.414zm3.535-2.122-2.828-2.828 1.414-1.414 2.828 2.828zm11.425 22.747a3.006 3.006 0 0 1 2.829 2h-16.658a3.006 3.006 0 0 1 2.829-2z"/><path d="m27 15a3 3 0 1 0 -3 3 3 3 0 0 0 3-3zm-4 0a1 1 0 1 1 1 1 1 1 0 0 1 -1-1z"/><path d="m24.651 23.019a2.033 2.033 0 0 1 1.349-1.309 7 7 0 0 0 -1.706-13.7 7.207 7.207 0 0 0 -6.328 3.653 6.487 6.487 0 0 0 -.93 2.695 1.733 1.733 0 0 1 -.852 1.358 6 6 0 0 0 1.53 11.153 6.289 6.289 0 0 0 1.286.131 5.959 5.959 0 0 0 5.651-3.981zm-6.529 1.889a4.011 4.011 0 0 1 -3.065-3.22 3.967 3.967 0 0 1 2.064-4.21 3.7 3.7 0 0 0 1.9-2.917 4.447 4.447 0 0 1 .654-1.869 5.235 5.235 0 0 1 4.362-2.692h.173a5 5 0 0 1 1.218 9.789 4.037 4.037 0 0 0 -2.659 2.553 4.008 4.008 0 0 1 -4.647 2.566z"/><circle cx="19" cy="21" r="1"/><path d="m10.267 37.6-.2-.3a1 1 0 1 0 -1.667 1.1l.205.307a4.47 4.47 0 0 0 3.476 2q.141.009.279.009a4.472 4.472 0 0 0 3.414-1.573l1.877-2.193a4.5 4.5 0 0 0 -4.16-7.375l-1.055.177a4.5 4.5 0 0 0 -3.126 2.121l-1.027 1.71a1 1 0 1 0 1.717 1.03l1.024-1.713a2.5 2.5 0 0 1 1.737-1.182l1.056-.176a2.5 2.5 0 0 1 2.313 4.1l-1.878 2.192a2.5 2.5 0 0 1 -3.985-.24z"/><circle cx="13" cy="35" r="1"/><path d="m53.9 26.011a2.9 2.9 0 0 0 -1.282-2.136 1 1 0 0 0 -1.109 1.664.913.913 0 0 1 .139 1.4 2.916 2.916 0 0 0 0 4.118 1 1 0 1 0 1.414-1.414.914.914 0 0 1 0-1.29 2.9 2.9 0 0 0 .838-2.342z"/><path d="m37.963 38.071a1.962 1.962 0 0 0 -2.018.1l-1.5 1a1 1 0 0 0 1.11 1.664l1.445-1.035v1.4a1.961 1.961 0 0 0 1.037 1.732 1.8 1.8 0 0 0 1.963-.132 1 1 0 0 0 2 0 1.961 1.961 0 0 0 -1.037-1.732 1.8 1.8 0 0 0 -1.963.132v-1.4a1.961 1.961 0 0 0 -1.037-1.729z"/><circle cx="22" cy="30" r="1"/><circle cx="42" cy="37" r="1"/><path d="m35 13a1 1 0 0 0 2 0 4 4 0 0 0 -4-4 1 1 0 0 0 0 2 2 2 0 0 1 2 2z"/><path d="m34.293 46.707 2 2a1 1 0 0 0 1.414-1.414l-2-2a1 1 0 0 0 -1.414 1.414z"/></g></g></svg>