<svg height="512" viewBox="0 0 64 64" width="512" xmlns="http://www.w3.org/2000/svg"><g id="Fill_Outline" data-name="Fill Outline"><path d="m48 21.233 3.483-2.233 1.9 3.676 4.134-.193-.193 4.134 3.676 1.9-2.233 3.483 2.233 3.483-3.676 1.9.193 4.134-4.134-.193-1.9 3.676-3.483-2.233-3.483 2.233-1.9-3.676-4.134.193.193-4.134-3.676-1.9 2.233-3.483-2.233-3.483 3.676-1.9-.193-4.134 4.134.193 1.9-3.676z" fill="#f06e7a"/><circle cx="48" cy="32" fill="#ffc569" r="7"/><circle cx="30" cy="32" fill="#92e5eb" r="2"/><circle cx="13" cy="37" fill="#80e1b8" r="5"/><circle cx="23" cy="25" fill="#ffc569" r="3"/><circle cx="8" cy="11" fill="#34b2e4" r="4"/><path d="m16.5 39.33a4.989 4.989 0 0 1 -7.351-5.5 4.99 4.99 0 1 0 8.7 4.332 4.946 4.946 0 0 1 -1.349 1.168z" fill="#3aba80"/><path d="m12.365 37.237a2.271 2.271 0 0 1 -2.037-1.637l-.279-.975a2.261 2.261 0 0 0 -.66-1.046 4.971 4.971 0 0 0 5.681 7.95 2.266 2.266 0 0 1 -.534-1.328l-.05-.829a2.271 2.271 0 0 0 -2.121-2.135z" fill="#34b2e4"/><path d="m14.522 39.965a4.973 4.973 0 0 1 -5.381-6.083 4.959 4.959 0 0 0 5.929 7.642 2.266 2.266 0 0 1 -.534-1.328z" fill="#2070a1"/><path d="m31 33a1.992 1.992 0 0 1 -1.82-2.82 2 2 0 1 0 2.64 2.64 1.99 1.99 0 0 1 -.82.18z" fill="#68cbf2"/><path d="m10 13a3.985 3.985 0 0 1 -3.64-5.64 3.995 3.995 0 1 0 5.28 5.28 3.961 3.961 0 0 1 -1.64.36z" fill="#2070a1"/><path d="m25 26a2.96 2.96 0 0 1 -2.86-3.86 2.992 2.992 0 1 0 3.72 3.72 2.983 2.983 0 0 1 -.86.14z" fill="#f06e7a"/><g fill="#2f2f31"><path d="m40 32a8 8 0 1 0 8-8 8.009 8.009 0 0 0 -8 8zm14 0a6 6 0 1 1 -6-6 6.006 6.006 0 0 1 6 6z"/><path d="m34.034 35.742a1 1 0 0 0 .507.63l3.106 1.606-.163 3.492a1.007 1.007 0 0 0 .292.754.984.984 0 0 0 .754.292l3.492-.163 1.606 3.106a1 1 0 0 0 .63.507 1.01 1.01 0 0 0 .8-.124l2.942-1.888 2.943 1.888a1 1 0 0 0 .54.158 1.035 1.035 0 0 0 .259-.034 1 1 0 0 0 .63-.507l1.606-3.106 3.492.163a.973.973 0 0 0 .754-.292 1.007 1.007 0 0 0 .292-.754l-.163-3.492 3.106-1.606a1 1 0 0 0 .383-1.429l-1.888-2.943 1.888-2.943a1 1 0 0 0 -.383-1.429l-3.676-1.9a1 1 0 0 0 -.918 1.777l2.7 1.395-1.64 2.56a1 1 0 0 0 0 1.08l1.64 2.56-2.7 1.395a1 1 0 0 0 -.54.936l.142 3.036-3.036-.142a1 1 0 0 0 -.936.54l-1.395 2.7-2.56-1.64a1 1 0 0 0 -1.08 0l-2.56 1.64-1.395-2.7a.993.993 0 0 0 -.936-.54l-3.036.142.142-3.036a1 1 0 0 0 -.54-.936l-2.7-1.395 1.64-2.56a1 1 0 0 0 0-1.08l-1.64-2.56 2.7-1.395a1 1 0 0 0 .54-.936l-.142-3.036 3.036.142a1 1 0 0 0 .936-.54l1.395-2.7 2.56 1.64a1 1 0 0 0 1.08 0l2.56-1.64 1.395 2.7a1 1 0 0 0 .936.54l4.132-.193a1 1 0 0 0 .953-1.045.982.982 0 0 0 -1.046-.953l-3.492.163-1.606-3.106a1 1 0 0 0 -1.429-.383l-2.943 1.888-2.943-1.888a1 1 0 0 0 -1.429.383l-1.606 3.106-3.492-.163a1 1 0 0 0 -1.046 1.046l.163 3.492-3.106 1.606a1 1 0 0 0 -.383 1.429l1.888 2.943-1.888 2.943a1 1 0 0 0 -.124.799z"/><path d="m30 35a3 3 0 1 0 -3-3 3 3 0 0 0 3 3zm0-4a1 1 0 1 1 -1 1 1 1 0 0 1 1-1z"/><path d="m16 42.2a6 6 0 1 0 -2.99.8 6.006 6.006 0 0 0 2.99-.8zm-3.007-9.2a3.99 3.99 0 0 1 2.538 7.08l-.047-.773a3.274 3.274 0 0 0 -3.053-3.069 1.277 1.277 0 0 1 -1.142-.92l-.278-.973a3.168 3.168 0 0 0 -.264-.627c.086-.06.161-.13.253-.183a3.971 3.971 0 0 1 1.993-.535zm-3.457 6a3.977 3.977 0 0 1 -.253-3.422l.083.291a3.28 3.28 0 0 0 2.934 2.366 1.272 1.272 0 0 1 1.187 1.192l.05.83a3.239 3.239 0 0 0 .122.675 4 4 0 0 1 -4.123-1.932z"/><path d="m48 13a19 19 0 0 0 -17.926 12.765 1 1 0 1 0 1.889.656 16.963 16.963 0 0 1 28.314-6.158 1 1 0 0 0 1.446-1.383 18.831 18.831 0 0 0 -13.723-5.88z"/><path d="m60.277 43.737a16.963 16.963 0 0 1 -28.314-6.158 1 1 0 0 0 -1.889.656 18.963 18.963 0 0 0 31.649 6.885 1 1 0 0 0 -1.446-1.383z"/><path d="m45.091 7.179a24.74 24.74 0 0 1 15.409 3.174 1 1 0 0 0 1-1.731 26.751 26.751 0 0 0 -16.64-3.43 1 1 0 1 0 .231 1.987z"/><path d="m24.9 18.045a1 1 0 1 0 1.71 1.035 24.936 24.936 0 0 1 14.7-11.169 1 1 0 0 0 -.536-1.928 26.924 26.924 0 0 0 -15.874 12.062z"/><path d="m60.5 53.647a24.994 24.994 0 0 1 -37.5-21.631c0-.019 0-.077 0-.095a.99.99 0 0 0 -.977-.987 1.041 1.041 0 0 0 -1.023.966v.1a26.994 26.994 0 0 0 40.5 23.378 1 1 0 0 0 -1-1.731z"/><path d="m23 21a4 4 0 1 0 4 4 4 4 0 0 0 -4-4zm0 6a2 2 0 1 1 2-2 2 2 0 0 1 -2 2z"/><path d="m13.124 29.005a.868.868 0 0 0 .113.007 1 1 0 0 0 .992-.888 33.95 33.95 0 0 1 14.731-24.296 1 1 0 1 0 -1.121-1.656 35.941 35.941 0 0 0 -15.596 25.728 1 1 0 0 0 .881 1.105z"/><path d="m16.675 45.18a1 1 0 0 0 -1.844.775 35.97 35.97 0 0 0 13.008 15.873 1 1 0 1 0 1.121-1.656 33.956 33.956 0 0 1 -12.285-14.992z"/><path d="m12.764 5.585a1 1 0 0 0 .777-.37l.191-.236c.36-.444.718-.888 1.1-1.312a1 1 0 0 0 -1.49-1.334c-.4.449-.782.918-1.162 1.388l-.19.234a1 1 0 0 0 .147 1.406.99.99 0 0 0 .627.224z"/><path d="m4 32a42.355 42.355 0 0 1 2.111-13.217 1 1 0 1 0 -1.9-.623 44.46 44.46 0 0 0 9.129 43.507 1 1 0 1 0 1.49-1.334 42.423 42.423 0 0 1 -10.83-28.333z"/><path d="m8 16a5 5 0 1 0 -5-5 5.006 5.006 0 0 0 5 5zm0-8a3 3 0 1 1 -3 3 3 3 0 0 1 3-3z"/><circle cx="31" cy="57" r="1"/><circle cx="29" cy="8" r="1"/><circle cx="12" cy="50" r="1"/><circle cx="9" cy="23" r="1"/><circle cx="48" cy="10" r="1"/><circle cx="39" cy="52" r="1"/><circle cx="61" cy="3" r="1"/><circle cx="19" cy="5" r="1"/></g></g></svg>