<svg height="512" viewBox="0 0 64 64" width="512" xmlns="http://www.w3.org/2000/svg"><g id="Fill_Outline" data-name="Fill Outline"><path d="m25 4h-16a6 6 0 0 0 -6 6v10a6 6 0 0 0 6 6h11l6 6v-6h2a3 3 0 0 0 3-3v-13a6 6 0 0 0 -6-6z" fill="#bbf58b"/><path d="m9 13v-9a6 6 0 0 0 -6 6v10a6 6 0 0 0 6 6h11l6 6v-6h2a3 3 0 0 0 3-3v-3h-15a7 7 0 0 1 -7-7z" fill="#80e1b8"/><path d="m3 57h58v4h-58z" fill="#68cbf2"/><path d="m11 57h50a0 0 0 0 1 0 0v2a0 0 0 0 1 0 0h-48a2 2 0 0 1 -2-2 0 0 0 0 1 0 0z" fill="#92e5eb"/><path d="m42 32h10v3h-10z" fill="#f06e7a"/><path d="m47 35a8 8 0 0 1 -8-8v-8h16v8a8 8 0 0 1 -8 8z" fill="#ffc569"/><path d="m39 35h16a6 6 0 0 1 6 6v16a0 0 0 0 1 0 0h-28a0 0 0 0 1 0 0v-16a6 6 0 0 1 6-6z" fill="#34b2e4"/><path d="m44 35 1 16v6h4v-6l1-16z" fill="#80e1b8"/><path d="m42 21h-3v6a7.985 7.985 0 0 0 9.5 7.855 8.008 8.008 0 0 1 -6.243-5.855h.743a4 4 0 0 0 4-4 4 4 0 0 0 4 4h3.738a7.992 7.992 0 0 0 .262-2v-6z" fill="#f06e7a"/><path d="m35 10h18a6 6 0 0 1 6 6v6a0 0 0 0 1 0 0h-24a0 0 0 0 1 0 0v-12a0 0 0 0 1 0 0z" fill="#80e1b8"/><path d="m47 19h-12v4a4 4 0 0 0 4 4h4a4 4 0 0 0 4-4 4 4 0 0 0 4 4h4a4 4 0 0 0 4-4v-4z" fill="#34b2e4"/><path d="m39 10h14a6 6 0 0 1 6 6 0 0 0 0 1 0 0h-14a6 6 0 0 1 -6-6 0 0 0 0 1 0 0z" fill="#bbf58b"/><path d="m58.965 23.344-4.344-4.344h-4.242l7.109 7.109a3.967 3.967 0 0 0 1.477-2.765z" fill="#92e5eb"/><path d="m36.379 19 7.8 7.8a3.98 3.98 0 0 0 2.326-1.916l-5.884-5.884z" fill="#92e5eb"/><path d="m52 35h3a6 6 0 0 1 6 6v13a0 0 0 0 1 0 0h-3a6 6 0 0 1 -6-6v-13a0 0 0 0 1 0 0z" fill="#68cbf2"/><path d="m49 55 1-20 4 4-2 2 1 5z" fill="#34b2e4"/><path d="m56 45a0 0 0 0 1 0 0v12a0 0 0 0 1 0 0h-2a0 0 0 0 1 0 0v-10a2 2 0 0 1 2-2z" fill="#34b2e4"/><path d="m44 35 2 16-1 6h2l1-6 2-16z" fill="#bbf58b"/><path d="m49 51 1-16 4 3-2 3 1 3z" fill="#92e5eb"/><path d="m45 51-1-16-4 3 2 3-1 3z" fill="#92e5eb"/><path d="m21 47.422v-4.422h-4v4.422a5 5 0 1 0 4 0z" fill="#92e5eb"/><path d="m19.922 56.887a5 5 0 0 1 -.922-9.465v-.422a2 2 0 0 1 2-2v-2h-4v4.422a5 5 0 0 0 3 9.478c-.026-.006-.052-.007-.078-.013z" fill="#68cbf2"/><path d="m23.036 50.679a5.175 5.175 0 0 0 -3.955.281 5.182 5.182 0 0 1 -4.241.176l-.7-.278a5 5 0 1 0 9.733.1z" fill="#80e1b8"/><path d="m19.922 56.887a4.989 4.989 0 0 1 -3.846-4 5.135 5.135 0 0 1 -.029-1.435 5.139 5.139 0 0 1 -1.207-.315l-.7-.278a4.991 4.991 0 0 0 5.86 6.041c-.026-.006-.052-.007-.078-.013z" fill="#3aba80"/><circle cx="10" cy="18" fill="#68cbf2" r="3"/><path d="m12.749 19.2a7.015 7.015 0 0 1 -3.433-4.11 3 3 0 1 0 3.433 4.11z" fill="#34b2e4"/><circle cx="23" cy="16" fill="#ffc569" r="4"/><circle cx="15" cy="10" fill="#f06e7a" r="2"/><path d="m25 18a3.985 3.985 0 0 1 -3.64-5.64 3.995 3.995 0 1 0 5.28 5.28 3.961 3.961 0 0 1 -1.64.36z" fill="#f06e7a"/><path d="m16 11a1.992 1.992 0 0 1 -1.82-2.82 2 2 0 1 0 2.64 2.64 1.99 1.99 0 0 1 -.82.18z" fill="#a7325c"/><path d="m11 20a3 3 0 0 1 -3-3 2.965 2.965 0 0 1 .446-1.554 2.992 2.992 0 1 0 4.108 4.108 2.965 2.965 0 0 1 -1.554.446z" fill="#2070a1"/><path d="m35 48.333v-5.333h-4v5.333a2 2 0 0 1 -.4 1.2l-2 2.667a3 3 0 0 0 -.6 1.8v1a2 2 0 0 0 2 2h6a2 2 0 0 0 2-2v-1a3 3 0 0 0 -.6-1.8l-2-2.667a2 2 0 0 1 -.4-1.2z" fill="#92e5eb"/><path d="m30 53.5a1.5 1.5 0 0 1 .3-.9l2.7-3.6v-2a2 2 0 0 1 2-2v-2h-4v5.333a2 2 0 0 1 -.4 1.2l-2 2.667a3 3 0 0 0 -.6 1.8v1a2 2 0 0 0 2 2h6a2 2 0 0 0 2-2h-6.5a1.5 1.5 0 0 1 -1.5-1.5z" fill="#68cbf2"/><path d="m37.4 52.2-2-2.667a2 2 0 0 1 -.4-1.2v-1.333h-4v1.333a2 2 0 0 1 -.4 1.2l-2 2.667a3 3 0 0 0 -.6 1.8v1a2 2 0 0 0 2 2h6a2 2 0 0 0 2-2v-1a3 3 0 0 0 -.6-1.8z" fill="#ffc569"/><path d="m30 53.5a1.5 1.5 0 0 1 .3-.9l1.7-2.267a5 5 0 0 0 1-3v-.333h-2v1.333a2 2 0 0 1 -.4 1.2l-2 2.667a3 3 0 0 0 -.6 1.8v1a2 2 0 0 0 2 2h6a2 2 0 0 0 2-2h-6.5a1.5 1.5 0 0 1 -1.5-1.5z" fill="#f06e7a"/><path d="m6 45h4a0 0 0 0 1 0 0v10a2 2 0 0 1 -2 2 2 2 0 0 1 -2-2v-10a0 0 0 0 1 0 0z" fill="#92e5eb"/><path d="m8 53v-8h-2v10a2 2 0 0 0 3.846.768 3 3 0 0 1 -1.846-2.768z" fill="#68cbf2"/><path d="m6 55a2 2 0 0 0 4 0v-6h-4z" fill="#ffc569"/><path d="m8 53v-4h-2v6a2 2 0 0 0 3.846.768 3 3 0 0 1 -1.846-2.768z" fill="#f06e7a"/><g fill="#2f2f31"><path d="m61 56h-22.184a2.966 2.966 0 0 0 .184-1v-1a4.022 4.022 0 0 0 -.8-2.4l-2-2.667a1.006 1.006 0 0 1 -.2-.6v-4.333h1a1 1 0 0 0 0-2h-3v-3a3 3 0 0 0 -3-3h-10a2.966 2.966 0 0 0 -1 .184v-1.184a3 3 0 0 0 -3-3h-7a3 3 0 0 0 -3 3v9h-2a1 1 0 0 0 0 2v9a2.966 2.966 0 0 0 .184 1h-2.184a1 1 0 0 0 -1 1v4a1 1 0 0 0 2 0v-3h56v3a1 1 0 0 0 2 0v-4a1 1 0 0 0 -1-1zm-27-10h-2v-2h2zm-13-8h10a1 1 0 0 1 1 1v3h-3a1 1 0 0 0 0 2h1v4.333a1.006 1.006 0 0 1 -.2.6l-2 2.667a4.022 4.022 0 0 0 -.8 2.4v1a2.966 2.966 0 0 0 .184 1h-3.724a5.981 5.981 0 0 0 -1.46-9.191v-2.809h1a1 1 0 0 0 0-2h-3v-3a1 1 0 0 1 1-1zm-5.977 14.226a5.929 5.929 0 0 0 4.5-.372 4.157 4.157 0 0 1 3.192-.227l.259.087c.007.095.021.189.021.286a3.991 3.991 0 0 1 -7.977.226zm-6.023-17.226a1 1 0 0 1 1-1h7a1 1 0 0 1 1 1v7h-3a1 1 0 0 0 0 2h5v3.422a1 1 0 0 0 .6.916 4 4 0 0 1 1.471 1.113 6.141 6.141 0 0 0 -3.437.614 4.179 4.179 0 0 1 -3.229.2 4 4 0 0 1 2-1.924 1 1 0 0 0 .6-.916v-.425a1 1 0 0 0 -1.979-.2 5.981 5.981 0 0 0 -1.486 9.2h-3.724a2.966 2.966 0 0 0 .184-1v-9a1 1 0 0 0 0-2h-2zm0 11v2h-2v-2zm-2 9v-5h2v5a1 1 0 0 1 -2 0zm23 1a1 1 0 0 1 -1-1v-1a2.012 2.012 0 0 1 .4-1.2l2-2.667a3.014 3.014 0 0 0 .6-1.8v-.333h2v.333a3.014 3.014 0 0 0 .6 1.8l2 2.668a2.007 2.007 0 0 1 .4 1.199v1a1 1 0 0 1 -1 1z"/><path d="m57 53v-7a1 1 0 0 0 -2 0v7a1 1 0 0 0 2 0z"/><circle cx="42" cy="23" r="1"/><circle cx="52" cy="23" r="1"/><path d="m48.293 29.293a1.831 1.831 0 0 1 -2.586 0 1 1 0 0 0 -1.414 1.414 3.831 3.831 0 0 0 5.414 0 1 1 0 0 0 -1.414-1.414z"/><path d="m55 34h-2.376a8.974 8.974 0 0 0 2.162-2.5 1 1 0 1 0 -1.73-1 6.99 6.99 0 0 1 -12.976-2.5h2.92a5 5 0 0 0 4-2 5 5 0 0 0 4 2h4a5.006 5.006 0 0 0 5-5v-7a7.008 7.008 0 0 0 -7-7h-18a1 1 0 0 0 -1 1v3a6.977 6.977 0 0 0 2.11 5h-1.11a1 1 0 0 0 -1 1v4a5.006 5.006 0 0 0 4.046 4.9 8.991 8.991 0 0 0 3.31 6.1h-2.356a6.972 6.972 0 0 0 -3.914 1.2 1 1 0 0 0 1.119 1.657 4.977 4.977 0 0 1 2.795-.857h2l-1.6 1.2a1 1 0 0 0 -.232 1.355l1.732 2.593-.845 2.536a1 1 0 0 0 .081.812l3.864 6.769v1.735a1 1 0 0 0 2 0v-2a.28.28 0 0 0 -.006-.028c0-.012.005-.023 0-.034l-.93-14.938h3.872l-.936 14.938v.034a.28.28 0 0 0 0 .028v2a1 1 0 0 0 2 0v-1.735l3.868-6.765a1 1 0 0 0 .081-.812l-.849-2.54 1.728-2.593a1 1 0 0 0 -.228-1.355l-1.6-1.2h2a5.006 5.006 0 0 1 5 5v12a1 1 0 0 0 2 0v-12a7.008 7.008 0 0 0 -7-7zm-19-21v-2h17a5.006 5.006 0 0 1 5 5v2h-17a5.006 5.006 0 0 1 -5-5zm0 10v-3h22v3a3 3 0 0 1 -3 3h-4a3 3 0 0 1 -3-3 1 1 0 0 0 -2 0 3 3 0 0 1 -3 3h-4a3 3 0 0 1 -3-3zm6.09 20.892.859-2.576a1 1 0 0 0 -.117-.871l-1.475-2.213 1.761-1.32.615 9.856zm8.961-2.576.859 2.576-1.643 2.876.615-9.856 1.761 1.32-1.475 2.213a1 1 0 0 0 -.117.871z"/><path d="m10 14a4 4 0 1 0 3.959 4.4l4.368-.671a4.992 4.992 0 1 0 1.173-5.29l-1.619-1.648a2.955 2.955 0 0 0 .119-.791 3 3 0 1 0 -5.339 1.856l-1.467 2.344a3.934 3.934 0 0 0 -1.194-.2zm0 6a2 2 0 1 1 2-2 2 2 0 0 1 -2 2zm5-7a2.971 2.971 0 0 0 1.713-.544l1.654 1.684a4.973 4.973 0 0 0 -.342 1.614l-4.351.669a4.019 4.019 0 0 0 -.779-1.168l1.456-2.33a3.024 3.024 0 0 0 .649.075zm8 0a3 3 0 1 1 -3 3 3 3 0 0 1 3-3zm-8-4a1 1 0 1 1 -1 1 1 1 0 0 1 1-1z"/><path d="m9 27h10.586l5.707 5.707a1 1 0 0 0 1.707-.707v-5h1a4 4 0 0 0 4-4v-4a1 1 0 0 0 -2 0v4a2 2 0 0 1 -2 2h-2a1 1 0 0 0 -1 1v3.586l-4.293-4.293a1 1 0 0 0 -.707-.293h-11a5.006 5.006 0 0 1 -5-5v-4a1 1 0 0 0 -2 0v4a7.008 7.008 0 0 0 7 7z"/><path d="m3 13a1 1 0 0 0 1-1v-2a5.006 5.006 0 0 1 5-5h16a5.006 5.006 0 0 1 5 5v5a1 1 0 0 0 2 0v-5a7.008 7.008 0 0 0 -7-7h-16a7.008 7.008 0 0 0 -7 7v2a1 1 0 0 0 1 1z"/></g></g></svg>